<svg width="17" height="18" viewBox="0 0 17 18" fill="none" xmlns="http://www.w3.org/2000/svg">
<path d="M16.8071 13.1492C16.3156 12.3219 15.585 9.98091 15.585 6.92338C15.585 5.08718 14.8386 3.3262 13.51 2.02781C12.1814 0.729425 10.3794 0 8.50044 0C6.6215 0 4.81952 0.729425 3.4909 2.02781C2.16229 3.3262 1.41589 5.08718 1.41589 6.92338C1.41589 9.98178 0.684404 12.3219 0.192913 13.1492C0.067402 13.3596 0.000863692 13.5985 8.35178e-06 13.842C-0.000846988 14.0855 0.064011 14.3249 0.188042 14.5361C0.312072 14.7472 0.490889 14.9227 0.70646 15.0448C0.92203 15.1669 1.16673 15.2313 1.41589 15.2314H5.02989C5.19335 16.013 5.62803 16.7155 6.26042 17.22C6.89282 17.7245 7.6841 18 8.50044 18C9.31678 18 10.1081 17.7245 10.7405 17.22C11.3729 16.7155 11.8075 16.013 11.971 15.2314H15.585C15.8341 15.2311 16.0787 15.1666 16.2941 15.0445C16.5096 14.9223 16.6883 14.7468 16.8122 14.5357C16.9361 14.3245 17.0009 14.0852 17 13.8418C16.9991 13.5984 16.9326 13.3595 16.8071 13.1492ZM8.50044 16.6161C8.06104 16.616 7.63248 16.4827 7.27375 16.2348C6.91502 15.9868 6.64375 15.6363 6.49728 15.2314H10.5036C10.3571 15.6363 10.0859 15.9868 9.72714 16.2348C9.3684 16.4827 8.93985 16.616 8.50044 16.6161ZM1.41589 13.8468C2.09777 12.7009 2.8328 10.0458 2.8328 6.92338C2.8328 5.45442 3.42992 4.04563 4.49281 3.00692C5.5557 1.96822 6.99729 1.38468 8.50044 1.38468C10.0036 1.38468 11.4452 1.96822 12.5081 3.00692C13.571 4.04563 14.1681 5.45442 14.1681 6.92338C14.1681 10.0432 14.9013 12.6983 15.585 13.8468H1.41589Z" fill="white"/>
</svg>
