<svg width="12" height="16" viewBox="0 0 12 16" fill="none" xmlns="http://www.w3.org/2000/svg">
<path d="M7.5 16H4.5V15.2H7.5V16ZM6.75 6.4V4H5.25V6.4L4.5 7.6V14.4H7.5V7.6L6.75 6.4ZM6 0C6 0 5.25 0.8 5.25 2.4V3.2H6.75V2.4C6.75 2.4 6.75 0.8 6 0ZM3 16H0V15.2H3V16ZM2.25 6.4V4H0.75V6.4L0 7.6V14.4H3V7.6L2.25 6.4ZM1.5 0C1.5 0 0.75 0.8 0.75 2.4V3.2H2.25V2.4C2.25 2.4 2.25 0.8 1.5 0ZM12 16H9V15.2H12V16ZM11.25 6.4V4H9.75V6.4L9 7.6V14.4H12V7.6L11.25 6.4ZM10.5 0C10.5 0 9.75 0.8 9.75 2.4V3.2H11.25V2.4C11.25 2.4 11.25 0.8 10.5 0Z" fill="white"/>
</svg>
