<svg width="18" height="18" viewBox="0 0 18 18" fill="none" xmlns="http://www.w3.org/2000/svg">
<path d="M16 9C16 10.8565 15.2625 12.637 13.9497 13.9497C12.637 15.2625 10.8565 16 9 16C7.14348 16 5.36301 15.2625 4.05025 13.9497C2.7375 12.637 2 10.8565 2 9C2 7.14348 2.7375 5.36301 4.05025 4.05025C5.36301 2.7375 7.14348 2 9 2C10.8565 2 12.637 2.7375 13.9497 4.05025C15.2625 5.36301 16 7.14348 16 9ZM9 5.0625C9 4.94647 8.95391 4.83519 8.87186 4.75314C8.78981 4.67109 8.67853 4.625 8.5625 4.625C8.44647 4.625 8.33519 4.67109 8.25314 4.75314C8.17109 4.83519 8.125 4.94647 8.125 5.0625V9.875C8.12502 9.95212 8.14543 10.0279 8.18415 10.0945C8.22288 10.1612 8.27854 10.2165 8.3455 10.2548L11.408 12.0048C11.5085 12.0591 11.6263 12.0719 11.7361 12.0406C11.846 12.0092 11.9392 11.9361 11.9959 11.8369C12.0525 11.7377 12.0682 11.6203 12.0394 11.5098C12.0107 11.3992 11.9398 11.3043 11.842 11.2452L9 9.62125V5.0625Z" fill="white"/>
</svg>
