<svg width="16" height="16" viewBox="0 0 16 16" fill="none" xmlns="http://www.w3.org/2000/svg">
<path d="M9.12352 14.2695C9.87112 13.9427 10.4043 13.4266 10.6141 12.5976C10.6739 12.3527 10.7039 12.1007 10.7033 11.8478C10.7103 9.77855 10.6917 7.70926 10.7143 5.63997C10.7242 4.72705 10.045 4.36919 9.36344 4.69236C8.23219 5.22855 7.07022 5.69353 5.92042 6.18651C5.82404 6.23084 5.72367 6.26489 5.6208 6.28815C4.88827 6.43908 4.51099 7.12682 4.77642 7.87054C5.13168 8.86441 5.51475 9.84671 5.86421 10.8424C6.05951 11.3993 6.22526 11.969 6.37942 12.5404C6.60775 13.3895 7.1218 13.9372 7.8949 14.2628C7.09166 14.2628 6.28785 14.2689 5.48403 14.2531C5.40985 14.2531 5.33393 14.1119 5.26845 14.0285C5.24874 14.0035 5.25628 13.9488 5.26207 13.9068C5.37276 13.1028 5.09516 12.4126 4.74802 11.7158C4.02302 10.263 3.34787 8.78346 2.64025 7.32157C2.54405 7.12256 2.56028 7.00935 2.70922 6.85355C3.8509 5.66006 4.97984 4.45257 6.1221 3.25725C6.27974 3.09171 6.34986 2.92434 6.33421 2.6955C6.32407 2.48282 6.32407 2.26974 6.33421 2.05706C6.34059 1.8404 6.43911 1.72598 6.66049 1.72719C7.89683 1.73166 9.13317 1.73166 10.3695 1.72719C10.5781 1.72719 10.6657 1.8404 10.683 2.04063C10.6871 2.07071 10.6871 2.10124 10.683 2.13131C10.5364 2.82513 10.8766 3.27307 11.3304 3.72223C12.3243 4.71305 13.2736 5.75378 14.2518 6.7653C14.4465 6.96553 14.4836 7.11951 14.3521 7.38852C13.5488 9.03847 12.7873 10.7091 11.9679 12.3506C11.7361 12.8192 11.7621 13.2854 11.7558 13.7656C11.7488 14.2653 11.7419 14.2756 11.2684 14.2738C10.5515 14.2671 9.8375 14.2695 9.12352 14.2695Z" fill="white"/>
<path d="M6.53372 11.0012C6.22541 10.1686 5.94086 9.39326 5.65109 8.60754C6.82175 8.55885 7.23206 7.3824 6.54242 6.56686L9.00776 5.50178C9.28594 6.17673 9.55484 6.36114 10.1118 6.26924V10.4249C9.55542 9.90632 8.94923 9.60993 8.21206 9.72921C7.47489 9.8485 6.93824 10.2691 6.53372 11.0012Z" fill="white"/>
<path d="M13.0243 4.64599L12.3434 3.92843C12.4013 3.93452 12.4778 3.96799 12.5091 3.94122C12.6076 3.85723 12.734 3.76228 12.7601 3.64908C12.7763 3.57909 12.625 3.38859 12.5566 3.39285C12.4407 3.39955 12.3213 3.50484 12.2304 3.59796C12.1938 3.63508 12.2304 3.74889 12.2304 3.82801L11.3112 2.91509C11.5726 2.63878 11.7783 2.38499 12.0188 2.17623C12.1661 2.04834 12.3538 1.98324 12.5447 1.99384C12.7355 2.00444 12.9156 2.08996 13.0492 2.23344C13.5832 2.77592 14.1079 3.32773 14.6233 3.88887C14.765 4.04458 14.844 4.25167 14.844 4.46706C14.844 4.68244 14.765 4.88953 14.6233 5.04524C14.4367 5.26252 14.2298 5.46032 14.0113 5.68855L13.0985 4.72085C13.3019 4.81032 13.4798 4.76224 13.5308 4.53827C13.5523 4.44332 13.4485 4.29117 13.3633 4.20779C13.3222 4.16701 13.1391 4.19318 13.1153 4.24126C13.0556 4.35994 13.051 4.50905 13.0243 4.64599Z" fill="white"/>
<path d="M4.67908 3.92361L3.99175 4.65029C3.96625 4.51336 3.96336 4.36424 3.9054 4.24435C3.88164 4.19505 3.69619 4.1634 3.66142 4.20174C3.57565 4.29486 3.46669 4.45128 3.48756 4.55109C3.53972 4.77932 3.72922 4.79879 3.92395 4.72089L2.96366 5.66729C2.75329 5.43297 2.49249 5.18283 2.28386 4.88948C2.08276 4.60769 2.14361 4.15914 2.39455 3.88466C2.91034 3.32595 3.43308 2.77333 3.97031 2.23349C4.28732 1.91275 4.73935 1.92248 5.06737 2.23349C5.27426 2.42946 5.46899 2.63943 5.69327 2.86766L4.80194 3.79884C4.77355 3.68564 4.77355 3.54688 4.70864 3.46776C4.67223 3.43256 4.62809 3.40736 4.58017 3.39441C4.53224 3.38145 4.48201 3.38114 4.43394 3.3935C4.38674 3.42114 4.34591 3.45935 4.31436 3.50542C4.28281 3.55149 4.26131 3.60429 4.25138 3.66008C4.24211 3.74102 4.32557 3.86701 4.40148 3.91448C4.4774 3.96195 4.58462 3.92361 4.67908 3.92361Z" fill="white"/>
<path d="M2.63746 8.63678L4.09904 11.703C4.23697 11.9896 4.35288 12.2939 4.51573 12.569C4.72842 12.9257 4.68322 13.2994 4.66583 13.6755C4.02834 13.7771 4.01617 13.7698 3.75248 13.2154C3.19845 12.0505 2.64789 10.8789 2.08052 9.71889C1.95882 9.46997 1.96461 9.29286 2.17035 9.11028C2.32451 8.97699 2.46359 8.81875 2.63746 8.63678Z" fill="white"/>
<path d="M12.3569 13.7224C12.3041 13.2592 12.34 12.8789 12.5278 12.4973C13.1207 11.294 13.6869 10.0762 14.2664 8.86506C14.3 8.79506 14.3447 8.73055 14.4067 8.62161C14.595 8.82975 14.7834 9.00686 14.9283 9.21622C14.9926 9.30752 15.0239 9.49314 14.9787 9.58931C14.3754 10.8881 13.753 12.1777 13.1415 13.4729C12.9578 13.8636 12.6385 13.6482 12.3569 13.7224Z" fill="white"/>
<path d="M8.51923 10.3117C9.44301 10.3171 10.1263 11.0548 10.1211 12.0401C10.1188 12.2632 10.0745 12.4835 9.99057 12.6884C9.90667 12.8933 9.78491 13.0787 9.63232 13.2339C9.47973 13.389 9.29935 13.5108 9.10162 13.5923C8.90389 13.6737 8.69275 13.7132 8.48041 13.7083C7.59198 13.701 6.89016 12.9378 6.89306 11.9841C6.89596 11.0304 7.60531 10.3062 8.51923 10.3117ZM8.50996 10.8558C8.21714 10.8554 7.93611 10.9769 7.72834 11.1936C7.52058 11.4103 7.403 11.7046 7.40131 12.0121C7.40131 12.6311 7.93159 13.1807 8.51808 13.1685C8.80556 13.1583 9.07855 13.0335 9.28157 12.8195C9.48459 12.6055 9.60241 12.3183 9.61108 12.0164C9.61161 11.8642 9.58353 11.7133 9.52843 11.5725C9.47333 11.4318 9.39231 11.3038 9.29001 11.196C9.18771 11.0881 9.06614 11.0026 8.93228 10.9442C8.79842 10.8858 8.6549 10.8558 8.50996 10.8558Z" fill="white"/>
<path d="M6.35513 14.8999H10.6391C10.7642 15.4848 10.4455 15.9717 9.89667 15.9839C8.96941 16.0054 8.04332 16.0054 7.11838 15.9839C6.57825 15.9723 6.29312 15.5536 6.35513 14.8999Z" fill="white"/>
<path d="M6.92609 1.09537C6.82003 0.438072 7.12139 0.0254313 7.72758 0.00960731C8.23815 -0.00439081 8.74988 -0.00195636 9.26046 0.00960731C9.88809 0.0217796 10.1918 0.422856 10.0892 1.09842L6.92609 1.09537Z" fill="white"/>
<path d="M6.30358 7.42073C6.30164 7.52834 6.26955 7.63296 6.21133 7.72154C6.1531 7.81011 6.07132 7.87871 5.97619 7.91876C5.88107 7.95881 5.77681 7.96855 5.67645 7.94674C5.57608 7.92494 5.48406 7.87258 5.41187 7.79618C5.33968 7.71978 5.29052 7.62274 5.27053 7.51718C5.25054 7.41162 5.26061 7.30221 5.29947 7.20262C5.33834 7.10303 5.40428 7.01767 5.48907 6.9572C5.57386 6.89674 5.67372 6.86384 5.77621 6.86263C5.84602 6.8618 5.91529 6.8757 5.9799 6.90351C6.0445 6.93132 6.10314 6.97247 6.15232 7.02451C6.2015 7.07656 6.24023 7.13845 6.26622 7.20651C6.2922 7.27457 6.30491 7.34741 6.30358 7.42073ZM6.19521 7.44264C6.00802 7.30022 5.91182 7.17667 5.79649 7.15111C5.75866 7.1406 5.71889 7.1405 5.68102 7.15082C5.64314 7.16114 5.60844 7.18153 5.58025 7.21003C5.55206 7.23853 5.53134 7.27418 5.52009 7.31354C5.50883 7.35289 5.50742 7.39463 5.51599 7.43473C5.53396 7.54123 5.68406 7.68548 5.78606 7.69643C5.88806 7.70739 5.99875 7.57106 6.19521 7.44264Z" fill="white"/>
<path d="M9.85323 5.81323C9.73733 5.61847 9.61331 5.50223 9.62953 5.41337C9.64808 5.31234 9.79064 5.23565 9.87931 5.14801C9.95929 5.24357 10.0932 5.3306 10.103 5.43528C10.1134 5.52535 9.98189 5.63004 9.85323 5.81323Z" fill="white"/>
<path d="M9.03306 12.0098C9.03157 12.1189 8.99933 12.2252 8.9404 12.3151C8.88148 12.405 8.79851 12.4746 8.70196 12.5151C8.60542 12.5555 8.49963 12.5651 8.39793 12.5425C8.29623 12.5199 8.20319 12.4661 8.13054 12.3881C8.05789 12.31 8.00888 12.2111 7.98971 12.1038C7.97054 11.9965 7.98205 11.8856 8.0228 11.7852C8.06355 11.6848 8.13171 11.5993 8.21868 11.5395C8.30565 11.4797 8.40753 11.4483 8.51148 11.4492C8.58124 11.4484 8.65044 11.4624 8.7149 11.4904C8.77936 11.5184 8.83773 11.5599 8.88649 11.6123C8.93525 11.6647 8.97338 11.7269 8.99857 11.7952C9.02376 11.8636 9.0355 11.9365 9.03306 12.0098Z" fill="white"/>
</svg>
