<svg width="17" height="17" viewBox="0 0 17 17" fill="none" xmlns="http://www.w3.org/2000/svg">
<path d="M8.06956 3.00348C9.42993 6.66877 9.43059 10.3106 8.06624 14C6.52728 13.9116 4.97305 14.201 3.47525 13.598C1.05196 12.6226 -0.382105 10.0674 0.0892763 7.51223C0.316221 6.25435 0.970859 5.11574 1.94039 4.29259C2.90991 3.46945 4.13361 3.01332 5.40061 3.00281C6.27698 2.99611 7.16132 3.00348 8.06956 3.00348Z" fill="white"/>
<path d="M9.17697 3.00214C9.60387 3.00214 9.97965 3.00683 10.3548 3.00214C10.6648 2.99745 10.8474 3.15288 10.9463 3.43828C11.5966 5.2828 11.8846 7.23749 11.7941 9.19313C11.731 10.6558 11.4526 12.1008 10.9682 13.4808C10.8182 13.9062 10.7027 13.9913 10.2685 13.994C9.91658 13.994 9.5647 13.994 9.17697 13.994C10.4431 10.3233 10.4464 6.68216 9.17697 3.00214Z" fill="white"/>
<path d="M14.9743 10.6382C14.4996 10.6382 14.0256 10.6422 13.5515 10.6382C13.185 10.6349 12.9507 10.4258 12.9494 10.1163C12.948 9.80681 13.1824 9.59041 13.5469 9.58773C14.4958 9.58193 15.4444 9.58193 16.3924 9.58773C16.7622 9.58773 16.99 9.80278 16.99 10.113C16.99 10.4232 16.7596 10.6342 16.3924 10.6382C15.925 10.6422 15.451 10.6382 14.9743 10.6382Z" fill="white"/>
<path d="M14.9743 6.35457C15.4483 6.35457 15.923 6.35055 16.3971 6.35457C16.7662 6.35457 16.9946 6.56292 16.9999 6.87445C17.0052 7.18597 16.7722 7.40237 16.4024 7.40505C15.4539 7.41175 14.5054 7.41175 13.5568 7.40505C13.1897 7.40505 12.954 7.18731 12.9527 6.88114C12.9527 6.56158 13.1917 6.35657 13.5827 6.35389C14.0448 6.35189 14.5096 6.35457 14.9743 6.35457Z" fill="white"/>
<path d="M14.244 4.16518C13.7686 4.16518 13.2926 4.16987 12.8172 4.16518C12.4673 4.15982 12.2403 3.95414 12.2337 3.65802C12.2263 3.35051 12.4647 3.13278 12.8312 3.13144C13.7819 3.12742 14.7335 3.12742 15.686 3.13144C16.0611 3.13144 16.2835 3.33243 16.2789 3.65468C16.2743 3.97692 16.0618 4.16182 15.6741 4.16651C15.1947 4.16919 14.7187 4.16518 14.244 4.16518Z" fill="white"/>
<path d="M14.3104 12.8283C14.7751 12.8283 15.2399 12.8229 15.7046 12.8283C16.0651 12.8336 16.2749 13.0292 16.2796 13.3361C16.2842 13.6563 16.0645 13.86 15.6893 13.862C14.7386 13.866 13.787 13.866 12.8345 13.862C12.468 13.862 12.2303 13.6456 12.237 13.3374C12.2416 13.0413 12.4693 12.833 12.8179 12.8283C13.3145 12.8229 13.8091 12.8283 14.3104 12.8283Z" fill="white"/>
</svg>
