<svg width="17" height="17" viewBox="0 0 17 17" fill="none" xmlns="http://www.w3.org/2000/svg">
<path d="M10.5067 7.84859L9.21501 6.56887C9.48992 6.28726 9.57303 6.19112 9.63391 6.1207C9.70692 6.03626 9.74794 5.98881 10.0494 5.70288C10.4222 5.34964 10.9808 5.38645 11.3381 5.73065C11.5179 5.89737 11.6246 6.12809 11.635 6.37277C11.6455 6.61745 11.5588 6.85637 11.3938 7.03771C11.195 7.25473 10.9704 7.44772 10.7491 7.63789C10.6674 7.70815 10.5861 7.77803 10.5067 7.84859Z" fill="white"/>
<path fill-rule="evenodd" clip-rule="evenodd" d="M1.2321 16.8023C0.914161 16.8654 0.596141 16.9286 0.277612 16.9904C0.0809997 17.029 -0.0332461 16.9519 0.00860056 16.7453C0.13436 16.0833 0.265879 15.4222 0.403152 14.762C0.457619 14.5003 0.626997 14.3801 0.899995 14.3675C1.41411 14.3429 1.93951 13.8786 2.02121 13.3711C2.0531 13.1739 2.12816 13.0908 2.32743 13.0576C2.80368 12.9786 2.92258 12.8172 2.90863 12.3482C2.898 12.0141 3.08465 11.8461 3.42938 11.8766C3.84918 11.9119 4.05774 11.6933 4.06239 11.2789C4.06611 11.0987 4.12862 10.9247 4.24041 10.7834C4.40173 10.5943 4.58671 10.4252 4.78543 10.2435C4.86734 10.1686 4.95159 10.0916 5.03748 10.0102C4.89111 9.86484 4.75034 9.72859 4.61416 9.59678C4.39006 9.37988 4.1784 9.17501 3.97471 8.96141C3.25668 8.20819 3.17698 7.07039 3.81397 6.25872C5.26155 4.41309 6.72109 2.57699 8.19258 0.750397C8.8588 -0.0772134 9.98068 -0.231974 10.8814 0.344564C11.1579 0.521558 11.431 0.703422 11.704 0.885261C11.9833 1.07123 12.2625 1.25718 12.5453 1.43786C13.4929 2.0358 14.3253 2.79916 15.0029 3.69154C15.5152 4.37207 15.9816 5.08831 16.4468 5.80271C16.5124 5.90342 16.5779 6.0041 16.6436 6.10463C17.2527 7.03785 17.068 8.16037 16.1899 8.86178C14.4084 10.281 12.6243 11.698 10.8375 13.1127C9.92422 13.8354 8.78772 13.7683 7.95744 12.9467C7.74283 12.7348 7.53472 12.5164 7.31598 12.2869C7.2145 12.1804 7.11072 12.0715 7.00294 11.9597C6.91706 12.0481 6.83544 12.1351 6.75587 12.2198C6.5708 12.4169 6.39678 12.6022 6.20586 12.768C6.07415 12.8753 5.91069 12.936 5.7409 12.9407C5.29919 12.9414 5.09261 13.1367 5.12715 13.5837C5.1524 13.9211 4.97837 14.1031 4.64027 14.0898C4.21517 14.0739 4.0139 14.2094 3.95346 14.6212C3.91759 14.8616 3.82859 14.9553 3.58548 14.9892C3.14443 15.0509 2.63629 15.6175 2.63629 16.0472C2.63496 16.3867 2.48153 16.5574 2.16402 16.6185C1.85319 16.6789 1.54268 16.7406 1.2321 16.8023ZM9.00334 11.9741L5.11958 8.0955L8.02011 5.20369L8.5237 5.82751C8.56001 5.79351 8.59142 5.7644 8.61947 5.73839C8.67293 5.68884 8.71423 5.65056 8.75413 5.61117C8.96204 5.4054 9.01484 5.34783 9.046 5.31385C9.08809 5.26796 9.0907 5.26512 9.38265 4.99833C9.74647 4.66089 10.2281 4.47876 10.7247 4.49082C11.2213 4.50289 11.6935 4.7082 12.0404 5.06291C12.3923 5.41219 12.5942 5.88439 12.6032 6.37953C12.6123 6.87468 12.4279 7.35391 12.089 7.71578C11.8975 7.92575 11.6933 8.12437 11.4842 8.32789C11.402 8.40783 11.3191 8.48854 11.2359 8.57098L11.8223 9.15199L9.00334 11.9741Z" fill="white"/>
</svg>
