<svg width="155" height="34" viewBox="0 0 155 34" fill="none" xmlns="http://www.w3.org/2000/svg">
<rect x="0.5" y="0.5" width="41" height="33" rx="2.5" fill="url(#paint0_linear_311_2740)"/>
<rect x="0.5" y="0.5" width="41" height="33" rx="2.5" stroke="#39E87F"/>
<path d="M29.9462 13.616C29.9519 14.4901 29.9198 15.3634 29.8532 16.2343C29.8071 16.8398 29.7388 17.442 29.6343 18.0409C29.4812 18.9192 29.2639 19.7802 28.9512 20.6149C28.5603 21.6607 28.0081 22.6162 27.3242 23.4994C27.0444 23.86 26.7251 24.1813 26.4025 24.5009C25.3615 25.5344 24.1344 26.2886 22.8012 26.8801C22.3717 27.0707 21.9338 27.2465 21.4878 27.3952C21.1479 27.5086 20.8056 27.5127 20.4649 27.3854C19.6114 27.0666 18.7679 26.7256 17.9738 26.273C17.1212 25.7874 16.3344 25.2156 15.6217 24.5403C14.4951 23.4723 13.6787 22.1988 13.101 20.7669C12.7578 19.9165 12.5356 19.0317 12.3743 18.1313C12.2706 17.5504 12.213 16.963 12.1562 16.3756C12.0509 15.2805 12.0419 14.182 12.0616 13.0836C12.0715 12.5282 12.0632 11.9712 12.1134 11.4158C12.2023 10.4456 12.8854 9.65441 13.8376 9.42684C14.1445 9.35372 14.4597 9.34304 14.7716 9.31017C15.6579 9.21487 16.5237 9.03988 17.3508 8.69893C18.275 8.31773 19.1111 7.79932 19.8345 7.10428C20.0073 6.93833 20.19 6.78387 20.4048 6.6746C20.8879 6.42896 21.3471 6.48072 21.7841 6.78962C21.938 6.89889 22.0721 7.03034 22.2104 7.15686C23.2794 8.13205 24.522 8.77616 25.9318 9.10232C26.4848 9.23048 27.0469 9.30114 27.6123 9.34386C28.134 9.38411 28.622 9.51474 29.0368 9.8483C29.5857 10.2895 29.8672 10.8687 29.8919 11.5678C29.9157 12.2497 29.9281 12.9324 29.9454 13.6143L29.9462 13.616ZM15.7657 16.9285C15.6909 19.744 17.9836 22.1339 20.813 22.2342C23.704 22.336 26.2379 20.0102 26.2379 17C26.2379 14.205 24.0093 11.88 21.1932 11.7781C18.1844 11.6689 15.7797 14.0908 15.7657 16.9285Z" fill="white"/>
<path d="M24.9936 17.1397C24.9451 19.1434 23.2325 21.0536 20.8648 20.9928C18.837 20.9402 16.936 19.2412 17.0109 16.8817C17.0841 14.5706 19.0238 12.9448 21.1438 13.0154C23.3156 13.0877 25.0734 14.974 24.9944 17.1388L24.9936 17.1397ZM18.3614 17.6646C18.3531 17.7657 18.4157 17.9062 18.526 18.0187C18.8938 18.3942 19.2535 18.7787 19.6485 19.127C19.939 19.3833 20.2789 19.3579 20.5537 19.081C21.0278 18.6037 21.5018 18.1255 21.9758 17.649C22.4457 17.1766 22.9197 16.7092 23.3839 16.2318C23.6193 15.9903 23.6012 15.6255 23.3625 15.3733C23.1543 15.1539 22.793 15.1367 22.542 15.3372C22.4836 15.384 22.4301 15.4366 22.3766 15.49C21.6269 16.2376 20.8772 16.9852 20.1307 17.7353C20.0772 17.7895 20.0525 17.7846 20.0032 17.7345C19.8131 17.5381 19.6188 17.3459 19.4246 17.1544C19.2238 16.9573 18.986 16.9236 18.7342 17.0271C18.4832 17.1298 18.3745 17.3377 18.3614 17.6655V17.6646Z" fill="white"/>
<rect x="47" width="108" height="34" rx="3" fill="url(#paint1_linear_311_2740)" fill-opacity="0.9"/>
<rect x="47.5" y="0.5" width="107" height="33" rx="2.5" stroke="white" stroke-opacity="0.13"/>
<path d="M61.41 14.28H61.326C61.2327 14.5787 61.1207 14.91 60.99 15.274C60.8687 15.638 60.7427 16.0207 60.612 16.422C60.4813 16.814 60.3553 17.206 60.234 17.598L59.982 18.858C59.926 19.0353 59.87 19.222 59.814 19.418C59.7673 19.614 59.716 19.8053 59.66 19.992C59.604 20.1787 59.5527 20.356 59.506 20.524C59.4593 20.692 59.4127 20.8507 59.366 21C59.2633 21.028 59.1467 21.056 59.016 21.084C58.8853 21.1213 58.7313 21.14 58.554 21.14C58.162 21.14 57.8633 21.07 57.658 20.93C57.4527 20.79 57.35 20.5847 57.35 20.314C57.35 20.202 57.364 20.0853 57.392 19.964C57.4293 19.8427 57.4713 19.7027 57.518 19.544C57.602 19.236 57.7187 18.8487 57.868 18.382C58.0267 17.9153 58.1947 17.4113 58.372 16.87C58.5587 16.3193 58.7453 15.778 58.932 15.246C59.128 14.714 59.3053 14.224 59.464 13.776C59.632 13.328 59.7673 12.978 59.87 12.726C60.0007 12.642 60.206 12.5673 60.486 12.502C60.7753 12.4273 61.06 12.39 61.34 12.39C61.7413 12.39 62.1007 12.4507 62.418 12.572C62.7353 12.684 62.936 12.866 63.02 13.118C63.1973 13.6127 63.3887 14.1867 63.594 14.84C63.8087 15.484 64.0233 16.1607 64.238 16.87C64.4527 17.5793 64.658 18.27 64.854 18.942C65.0593 19.6047 65.2367 20.202 65.386 20.734C65.2833 20.846 65.134 20.9393 64.938 21.014C64.742 21.098 64.5087 21.14 64.238 21.14C63.8553 21.14 63.5847 21.07 63.426 20.93C63.2673 20.79 63.146 20.58 63.062 20.3L62.614 18.732L62.376 17.542C62.264 17.122 62.1473 16.716 62.026 16.324C61.9047 15.932 61.7927 15.5633 61.69 15.218C61.5873 14.8633 61.494 14.5507 61.41 14.28ZM59.044 19.11L59.87 17.458H63.146L63.426 19.11H59.044ZM60.836 10.528L62.376 9.24C62.7213 9.24 62.992 9.32867 63.188 9.506C63.384 9.674 63.482 9.87933 63.482 10.122C63.482 10.29 63.44 10.444 63.356 10.584C63.2813 10.7147 63.1273 10.8547 62.894 11.004L61.55 11.872C61.2233 11.872 60.9713 11.7973 60.794 11.648C60.626 11.4987 60.542 11.326 60.542 11.13C60.542 11.0273 60.5607 10.9293 60.598 10.836C60.6353 10.7333 60.7147 10.6307 60.836 10.528ZM68.776 16.492H69.686C70.1526 16.492 70.526 16.3893 70.806 16.184C71.0953 15.9693 71.24 15.6567 71.24 15.246C71.24 14.8447 71.1046 14.5413 70.834 14.336C70.5633 14.1213 70.148 14.014 69.588 14.014C69.4293 14.014 69.2846 14.0187 69.154 14.028C69.0233 14.0373 68.8973 14.056 68.776 14.084V16.492ZM69.882 18.144H66.662V13.258C66.662 13.0807 66.7133 12.9407 66.816 12.838C66.9186 12.7353 67.054 12.656 67.222 12.6C67.53 12.488 67.8893 12.4087 68.3 12.362C68.72 12.3153 69.154 12.292 69.602 12.292C70.862 12.292 71.8093 12.558 72.444 13.09C73.0786 13.6127 73.396 14.3267 73.396 15.232C73.396 15.792 73.242 16.296 72.934 16.744C72.6353 17.1827 72.22 17.528 71.688 17.78C71.1653 18.0227 70.5633 18.144 69.882 18.144ZM69.49 17.64L71.394 17.192C71.6086 17.4907 71.828 17.7847 72.052 18.074C72.2853 18.3633 72.5046 18.6433 72.71 18.914C72.9246 19.1847 73.116 19.4367 73.284 19.67C73.452 19.894 73.5873 20.0853 73.69 20.244C73.606 20.524 73.4566 20.7433 73.242 20.902C73.0273 21.0513 72.7846 21.126 72.514 21.126C72.1686 21.126 71.9026 21.0513 71.716 20.902C71.5386 20.7433 71.3706 20.538 71.212 20.286L69.49 17.64ZM66.662 17.346H68.79V20.986C68.706 21.014 68.5706 21.0373 68.384 21.056C68.1973 21.084 68.006 21.098 67.81 21.098C67.39 21.098 67.0913 21.0233 66.914 20.874C66.746 20.7247 66.662 20.4633 66.662 20.09V17.346ZM75.1112 15.064H77.1832V20.916C77.0992 20.9347 76.9685 20.958 76.7912 20.986C76.6232 21.014 76.4412 21.028 76.2452 21.028C75.8999 21.028 75.6245 20.9253 75.4192 20.72C75.2139 20.5147 75.1112 20.2393 75.1112 19.894V15.064ZM77.1832 18.452H75.1112V13.65C75.1112 13.2953 75.2139 13.02 75.4192 12.824C75.6245 12.6187 75.8999 12.516 76.2452 12.516C76.4412 12.516 76.6232 12.53 76.7912 12.558C76.9685 12.586 77.0992 12.6093 77.1832 12.628V18.452ZM76.2452 17.514V15.834H80.4732C80.5292 15.9273 80.5805 16.044 80.6272 16.184C80.6739 16.324 80.6972 16.478 80.6972 16.646C80.6972 16.9447 80.6272 17.164 80.4872 17.304C80.3565 17.444 80.1792 17.514 79.9552 17.514H76.2452ZM76.2452 21.028V19.334H80.9352C80.9912 19.418 81.0425 19.5347 81.0892 19.684C81.1359 19.8333 81.1592 19.992 81.1592 20.16C81.1592 20.4587 81.0892 20.678 80.9492 20.818C80.8185 20.958 80.6412 21.028 80.4172 21.028H76.2452ZM76.2452 14.196V12.516H80.8652C80.9305 12.6 80.9819 12.712 81.0192 12.852C81.0659 12.992 81.0892 13.146 81.0892 13.314C81.0892 13.6127 81.0239 13.8367 80.8932 13.986C80.7625 14.126 80.5805 14.196 80.3472 14.196H76.2452ZM86.3202 14.28H86.2362C86.1428 14.5787 86.0308 14.91 85.9002 15.274C85.7788 15.638 85.6528 16.0207 85.5222 16.422C85.3915 16.814 85.2655 17.206 85.1442 17.598L84.8922 18.858C84.8362 19.0353 84.7802 19.222 84.7242 19.418C84.6775 19.614 84.6262 19.8053 84.5702 19.992C84.5142 20.1787 84.4628 20.356 84.4162 20.524C84.3695 20.692 84.3228 20.8507 84.2762 21C84.1735 21.028 84.0568 21.056 83.9262 21.084C83.7955 21.1213 83.6415 21.14 83.4642 21.14C83.0722 21.14 82.7735 21.07 82.5682 20.93C82.3628 20.79 82.2602 20.5847 82.2602 20.314C82.2602 20.202 82.2742 20.0853 82.3022 19.964C82.3395 19.8427 82.3815 19.7027 82.4282 19.544C82.5122 19.236 82.6288 18.8487 82.7782 18.382C82.9368 17.9153 83.1048 17.4113 83.2822 16.87C83.4688 16.3193 83.6555 15.778 83.8422 15.246C84.0382 14.714 84.2155 14.224 84.3742 13.776C84.5422 13.328 84.6775 12.978 84.7802 12.726C84.9108 12.642 85.1162 12.5673 85.3962 12.502C85.6855 12.4273 85.9702 12.39 86.2502 12.39C86.6515 12.39 87.0108 12.4507 87.3282 12.572C87.6455 12.684 87.8462 12.866 87.9302 13.118C88.1075 13.6127 88.2988 14.1867 88.5042 14.84C88.7188 15.484 88.9335 16.1607 89.1482 16.87C89.3628 17.5793 89.5682 18.27 89.7642 18.942C89.9695 19.6047 90.1468 20.202 90.2962 20.734C90.1935 20.846 90.0442 20.9393 89.8482 21.014C89.6522 21.098 89.4188 21.14 89.1482 21.14C88.7655 21.14 88.4948 21.07 88.3362 20.93C88.1775 20.79 88.0562 20.58 87.9722 20.3L87.5242 18.732L87.2862 17.542C87.1742 17.122 87.0575 16.716 86.9362 16.324C86.8148 15.932 86.7028 15.5633 86.6002 15.218C86.4975 14.8633 86.4042 14.5507 86.3202 14.28ZM83.9542 19.11L84.7802 17.458H88.0562L88.3362 19.11H83.9542ZM96.9089 19.502C97.4129 19.502 97.7722 19.4133 97.9869 19.236C98.2109 19.0493 98.3229 18.83 98.3229 18.578C98.3229 18.3447 98.2342 18.158 98.0569 18.018C97.8889 17.8687 97.6369 17.7427 97.3009 17.64L96.5589 17.402C96.0549 17.234 95.6069 17.0473 95.2149 16.842C94.8322 16.6367 94.5335 16.3707 94.3189 16.044C94.1135 15.7173 94.0109 15.302 94.0109 14.798C94.0109 14.0233 94.3049 13.4073 94.8929 12.95C95.4809 12.4927 96.2975 12.264 97.3429 12.264C97.8749 12.264 98.3462 12.3153 98.7569 12.418C99.1769 12.5207 99.5035 12.6747 99.7369 12.88C99.9795 13.076 100.101 13.3187 100.101 13.608C100.101 13.8227 100.05 14.0093 99.9469 14.168C99.8535 14.3173 99.7322 14.448 99.5829 14.56C99.3682 14.4107 99.0835 14.2847 98.7289 14.182C98.3742 14.07 97.9822 14.014 97.5529 14.014C97.1049 14.014 96.7689 14.0887 96.5449 14.238C96.3209 14.378 96.2089 14.5647 96.2089 14.798C96.2089 14.9847 96.2835 15.1387 96.4329 15.26C96.5822 15.372 96.8062 15.4747 97.1049 15.568L97.8749 15.806C98.7242 16.0673 99.3775 16.4173 99.8349 16.856C100.292 17.2853 100.521 17.864 100.521 18.592C100.521 19.376 100.218 20.0153 99.6109 20.51C99.0042 20.9953 98.1269 21.238 96.9789 21.238C96.4095 21.238 95.9009 21.1773 95.4529 21.056C95.0049 20.9347 94.6455 20.7573 94.3749 20.524C94.1135 20.2907 93.9829 20.02 93.9829 19.712C93.9829 19.4693 94.0529 19.264 94.1929 19.096C94.3422 18.9187 94.5055 18.788 94.6829 18.704C94.9349 18.9093 95.2475 19.096 95.6209 19.264C96.0035 19.4227 96.4329 19.502 96.9089 19.502ZM101.99 15.064H104.062V20.916C103.978 20.9347 103.847 20.958 103.67 20.986C103.502 21.014 103.32 21.028 103.124 21.028C102.779 21.028 102.503 20.9253 102.298 20.72C102.093 20.5147 101.99 20.2393 101.99 19.894V15.064ZM104.062 18.452H101.99V13.65C101.99 13.2953 102.093 13.02 102.298 12.824C102.503 12.6187 102.779 12.516 103.124 12.516C103.32 12.516 103.502 12.53 103.67 12.558C103.847 12.586 103.978 12.6093 104.062 12.628V18.452ZM103.124 17.514V15.834H107.352C107.408 15.9273 107.459 16.044 107.506 16.184C107.553 16.324 107.576 16.478 107.576 16.646C107.576 16.9447 107.506 17.164 107.366 17.304C107.235 17.444 107.058 17.514 106.834 17.514H103.124ZM103.124 21.028V19.334H107.814C107.87 19.418 107.921 19.5347 107.968 19.684C108.015 19.8333 108.038 19.992 108.038 20.16C108.038 20.4587 107.968 20.678 107.828 20.818C107.697 20.958 107.52 21.028 107.296 21.028H103.124ZM103.124 14.196V12.516H107.744C107.809 12.6 107.861 12.712 107.898 12.852C107.945 12.992 107.968 13.146 107.968 13.314C107.968 13.6127 107.903 13.8367 107.772 13.986C107.641 14.126 107.459 14.196 107.226 14.196H103.124ZM116.971 16.814V19.726C116.971 19.9873 116.92 20.188 116.817 20.328C116.724 20.4587 116.565 20.5847 116.341 20.706C116.089 20.846 115.725 20.9673 115.249 21.07C114.773 21.182 114.297 21.238 113.821 21.238C112.925 21.238 112.118 21.084 111.399 20.776C110.69 20.4587 110.125 19.9733 109.705 19.32C109.295 18.6573 109.089 17.808 109.089 16.772C109.089 15.7827 109.299 14.9567 109.719 14.294C110.139 13.622 110.704 13.118 111.413 12.782C112.132 12.4367 112.925 12.264 113.793 12.264C114.372 12.264 114.871 12.3247 115.291 12.446C115.721 12.5673 116.047 12.7353 116.271 12.95C116.505 13.1647 116.621 13.412 116.621 13.692C116.621 13.8973 116.565 14.084 116.453 14.252C116.351 14.4107 116.225 14.532 116.075 14.616C115.842 14.4667 115.548 14.3267 115.193 14.196C114.839 14.0653 114.423 14 113.947 14C113.434 14 112.972 14.112 112.561 14.336C112.16 14.5507 111.847 14.868 111.623 15.288C111.399 15.6987 111.287 16.1887 111.287 16.758C111.287 17.374 111.395 17.8873 111.609 18.298C111.833 18.7087 112.137 19.0167 112.519 19.222C112.911 19.418 113.355 19.516 113.849 19.516C114.083 19.516 114.293 19.4927 114.479 19.446C114.675 19.3993 114.825 19.3527 114.927 19.306V17.668H113.289C113.233 17.5747 113.182 17.458 113.135 17.318C113.089 17.1687 113.065 17.01 113.065 16.842C113.065 16.5527 113.131 16.3427 113.261 16.212C113.401 16.072 113.583 16.002 113.807 16.002H116.159C116.411 16.002 116.607 16.072 116.747 16.212C116.897 16.352 116.971 16.5527 116.971 16.814ZM122.364 21.238C121.599 21.238 120.941 21.1027 120.39 20.832C119.849 20.552 119.429 20.1647 119.13 19.67C118.841 19.1753 118.696 18.5967 118.696 17.934V17.01H120.838V17.878C120.838 18.3913 120.978 18.7927 121.258 19.082C121.547 19.362 121.916 19.502 122.364 19.502C122.812 19.502 123.176 19.362 123.456 19.082C123.745 18.7927 123.89 18.3913 123.89 17.878V17.01H126.032V17.934C126.032 18.5967 125.887 19.1753 125.598 19.67C125.309 20.1647 124.889 20.552 124.338 20.832C123.787 21.1027 123.129 21.238 122.364 21.238ZM120.838 17.43H118.696V12.488C118.799 12.4693 118.943 12.446 119.13 12.418C119.317 12.39 119.503 12.376 119.69 12.376C120.091 12.376 120.381 12.446 120.558 12.586C120.745 12.726 120.838 12.992 120.838 13.384V17.43ZM126.032 17.458H123.89V12.488C123.993 12.4693 124.137 12.446 124.324 12.418C124.52 12.39 124.707 12.376 124.884 12.376C125.285 12.376 125.575 12.446 125.752 12.586C125.939 12.726 126.032 12.992 126.032 13.384V17.458ZM130.094 16.492H131.004C131.471 16.492 131.844 16.3893 132.124 16.184C132.414 15.9693 132.558 15.6567 132.558 15.246C132.558 14.8447 132.423 14.5413 132.152 14.336C131.882 14.1213 131.466 14.014 130.906 14.014C130.748 14.014 130.603 14.0187 130.472 14.028C130.342 14.0373 130.216 14.056 130.094 14.084V16.492ZM131.2 18.144H127.98V13.258C127.98 13.0807 128.032 12.9407 128.134 12.838C128.237 12.7353 128.372 12.656 128.54 12.6C128.848 12.488 129.208 12.4087 129.618 12.362C130.038 12.3153 130.472 12.292 130.92 12.292C132.18 12.292 133.128 12.558 133.762 13.09C134.397 13.6127 134.714 14.3267 134.714 15.232C134.714 15.792 134.56 16.296 134.252 16.744C133.954 17.1827 133.538 17.528 133.006 17.78C132.484 18.0227 131.882 18.144 131.2 18.144ZM130.808 17.64L132.712 17.192C132.927 17.4907 133.146 17.7847 133.37 18.074C133.604 18.3633 133.823 18.6433 134.028 18.914C134.243 19.1847 134.434 19.4367 134.602 19.67C134.77 19.894 134.906 20.0853 135.008 20.244C134.924 20.524 134.775 20.7433 134.56 20.902C134.346 21.0513 134.103 21.126 133.832 21.126C133.487 21.126 133.221 21.0513 133.034 20.902C132.857 20.7433 132.689 20.538 132.53 20.286L130.808 17.64ZM127.98 17.346H130.108V20.986C130.024 21.014 129.889 21.0373 129.702 21.056C129.516 21.084 129.324 21.098 129.128 21.098C128.708 21.098 128.41 21.0233 128.232 20.874C128.064 20.7247 127.98 20.4633 127.98 20.09V17.346ZM139.955 14.28H139.871C139.778 14.5787 139.666 14.91 139.535 15.274C139.414 15.638 139.288 16.0207 139.157 16.422C139.026 16.814 138.9 17.206 138.779 17.598L138.527 18.858C138.471 19.0353 138.415 19.222 138.359 19.418C138.312 19.614 138.261 19.8053 138.205 19.992C138.149 20.1787 138.098 20.356 138.051 20.524C138.004 20.692 137.958 20.8507 137.911 21C137.808 21.028 137.692 21.056 137.561 21.084C137.43 21.1213 137.276 21.14 137.099 21.14C136.707 21.14 136.408 21.07 136.203 20.93C135.998 20.79 135.895 20.5847 135.895 20.314C135.895 20.202 135.909 20.0853 135.937 19.964C135.974 19.8427 136.016 19.7027 136.063 19.544C136.147 19.236 136.264 18.8487 136.413 18.382C136.572 17.9153 136.74 17.4113 136.917 16.87C137.104 16.3193 137.29 15.778 137.477 15.246C137.673 14.714 137.85 14.224 138.009 13.776C138.177 13.328 138.312 12.978 138.415 12.726C138.546 12.642 138.751 12.5673 139.031 12.502C139.32 12.4273 139.605 12.39 139.885 12.39C140.286 12.39 140.646 12.4507 140.963 12.572C141.28 12.684 141.481 12.866 141.565 13.118C141.742 13.6127 141.934 14.1867 142.139 14.84C142.354 15.484 142.568 16.1607 142.783 16.87C142.998 17.5793 143.203 18.27 143.399 18.942C143.604 19.6047 143.782 20.202 143.931 20.734C143.828 20.846 143.679 20.9393 143.483 21.014C143.287 21.098 143.054 21.14 142.783 21.14C142.4 21.14 142.13 21.07 141.971 20.93C141.812 20.79 141.691 20.58 141.607 20.3L141.159 18.732L140.921 17.542C140.809 17.122 140.692 16.716 140.571 16.324C140.45 15.932 140.338 15.5633 140.235 15.218C140.132 14.8633 140.039 14.5507 139.955 14.28ZM137.589 19.11L138.415 17.458H141.691L141.971 19.11H137.589Z" fill="white"/>
<defs>
<linearGradient id="paint0_linear_311_2740" x1="42" y1="17" x2="0" y2="17" gradientUnits="userSpaceOnUse">
<stop stop-color="#15B756"/>
<stop offset="1" stop-color="#39E87F"/>
</linearGradient>
<linearGradient id="paint1_linear_311_2740" x1="47" y1="17" x2="155" y2="17" gradientUnits="userSpaceOnUse">
<stop/>
<stop offset="1" stop-opacity="0.75"/>
</linearGradient>
</defs>
</svg>
