<svg width="17" height="17" viewBox="0 0 17 17" fill="none" xmlns="http://www.w3.org/2000/svg">
<path d="M1.28256 10.6383C0.732512 10.2336 0.705308 9.96283 1.11602 9.55009C1.59241 9.07298 2.05686 8.58327 2.55316 8.12806C2.70975 7.9834 2.94396 7.90178 3.15629 7.84604C3.36861 7.7903 3.62074 7.8122 3.84633 7.76774C3.99232 7.74276 4.12943 7.6806 4.24443 7.58725C4.53173 7.32912 4.79248 7.0418 5.07049 6.77239C5.35845 6.49435 5.60129 6.4844 5.87731 6.76044C7.33347 8.21101 8.78699 9.66467 10.2378 11.1214C10.5139 11.3988 10.5032 11.6397 10.2305 11.9283C10.0786 12.0889 9.93728 12.2674 9.75946 12.3928C9.29501 12.7206 9.15435 13.1792 9.1716 13.71C9.18288 14.0571 9.04553 14.3152 8.7934 14.5508C8.33359 14.9807 7.899 15.4379 7.45246 15.8825C7.0391 16.2939 6.77237 16.2681 6.35569 15.712C6.48375 15.6118 6.64034 15.5196 6.75778 15.3922C7.2972 14.8056 7.31844 13.9515 6.76375 13.3796C5.73266 12.3178 4.68544 11.2705 3.62206 10.2375C3.04084 9.67351 2.17961 9.70338 1.58578 10.2628C1.476 10.3807 1.37467 10.5062 1.28256 10.6383Z" fill="white"/>
<path d="M9.25783 3.53553C9.03556 3.33115 8.84314 3.1646 8.66068 2.98676C8.26656 2.59592 8.27054 2.38955 8.67262 1.99141C9.19679 1.46674 9.72095 0.942965 10.2451 0.420072C10.6704 -0.003285 10.9073 0.0119772 11.3293 0.527571C11.0128 0.838121 10.689 1.15 10.3719 1.46851C9.66588 2.1792 9.66124 3.04051 10.3646 3.74721C11.3226 4.7116 12.2836 5.67289 13.2475 6.63108C13.9554 7.33513 14.8167 7.33381 15.5259 6.63108C15.8384 6.31987 16.1403 5.99738 16.4396 5.68749C16.9531 5.99738 17.0055 6.32717 16.6273 6.7074C16.0749 7.26435 15.5202 7.8191 14.9633 8.37163C14.6143 8.71801 14.39 8.71668 14.0384 8.36234C13.8519 8.17455 13.6781 7.97481 13.4518 7.72929C13.2408 7.9569 13.0677 8.15199 12.8852 8.33712C12.4267 8.80162 11.9676 9.26612 11.5011 9.71934C11.2357 9.97614 10.9703 9.98477 10.7149 9.73327C9.56216 8.58928 8.41363 7.44064 7.26931 6.28736C7.00391 6.02193 7.02315 5.76048 7.30448 5.4778C7.93547 4.84077 8.57243 4.21569 9.25783 3.53553ZM11.6219 6.67289C11.5887 6.54018 11.5927 6.45789 11.5555 6.41675C11.2364 6.08497 10.9299 5.73858 10.5696 5.46055C10.4747 5.38756 10.1648 5.48908 10.0275 5.60122C9.83972 5.75385 9.84901 6.00932 10.0162 6.19844C10.2588 6.4826 10.5261 6.74464 10.8151 6.98145C10.9325 7.0717 11.1793 7.07767 11.3266 7.01927C11.4613 6.9642 11.5449 6.77442 11.6219 6.67289Z" fill="white"/>
<path d="M14.398 6.20836C14.2494 6.12276 14.0961 6.071 13.9933 5.96881C13.0024 4.99027 12.0169 4.00575 11.0367 3.01526C10.7613 2.73855 10.7653 2.48441 11.0413 2.2077C11.7017 1.53971 12.3652 0.876136 13.0318 0.21699C13.3258 -0.0729901 13.5673 -0.0729901 13.8625 0.220971C14.8357 1.18757 15.8053 2.15705 16.7713 3.1294C17.0772 3.43663 17.0752 3.67551 16.7713 3.9854C16.118 4.64411 15.4596 5.29883 14.7961 5.94957C14.6933 6.05242 14.5473 6.11413 14.398 6.20836Z" fill="white"/>
<path d="M6.20839 14.3895C6.12413 14.5289 6.06773 14.6782 5.96555 14.7823C5.30205 15.4614 4.63014 16.1343 3.94983 16.8009C3.68112 17.0664 3.43363 17.0664 3.16823 16.8009C2.17121 15.8122 1.17816 14.8193 0.189103 13.8222C-0.0617004 13.5687 -0.0630274 13.3161 0.185122 13.0644C0.867203 12.3712 1.55525 11.6833 2.24928 11.0007C2.4888 10.7658 2.74624 10.7605 2.98444 10.9954C4.00181 11.9982 5.01011 13.0073 6.00934 14.0226C6.09626 14.1135 6.13408 14.2508 6.20839 14.3895Z" fill="white"/>
</svg>
