<svg width="20" height="20" viewBox="0 0 20 20" fill="none" xmlns="http://www.w3.org/2000/svg">
<path d="M16.8192 7.84188L4.44 4.045C4.27245 3.99613 4.09583 3.98692 3.9241 4.01808C3.75237 4.04925 3.59025 4.11995 3.45056 4.22458C3.31087 4.32921 3.19744 4.46491 3.11924 4.62094C3.04104 4.77697 3.00022 4.94906 3 5.12359V15.2486C3 15.547 3.11853 15.8331 3.3295 16.0441C3.54048 16.2551 3.82663 16.3736 4.125 16.3736C4.23258 16.3736 4.33961 16.3582 4.44281 16.3279L10.3125 14.5265V15.2486C10.3125 15.547 10.431 15.8331 10.642 16.0441C10.853 16.2551 11.1391 16.3736 11.4375 16.3736H13.6875C13.9859 16.3736 14.272 16.2551 14.483 16.0441C14.694 15.8331 14.8125 15.547 14.8125 15.2486V13.1463L16.8192 12.531C17.0515 12.4612 17.2552 12.3187 17.4002 12.1243C17.5453 11.93 17.6241 11.6942 17.625 11.4517V8.92047C17.624 8.67808 17.5451 8.44244 17.4 8.24826C17.255 8.05408 17.0514 7.91162 16.8192 7.84188ZM10.3125 13.3502L4.125 15.2486V5.12359L10.3125 7.02203V13.3502ZM13.6875 15.2486H11.4375V14.1813L13.6875 13.4908V15.2486ZM16.5 11.4517H16.4923L11.4375 13.0042V7.36797L16.4923 8.91484H16.5V11.4461V11.4517Z" fill="white"/>
</svg>
