<svg width="20" height="20" viewBox="0 0 20 20" fill="none" xmlns="http://www.w3.org/2000/svg">
<g clip-path="url(#clip0_394_562)">
<path d="M10 0C8.3424 0 6.75269 0.65848 5.58058 1.83058C4.40848 3.00269 3.75 4.5924 3.75 6.25C3.75 12.5 10 20 10 20C10 20 16.25 12.5 16.25 6.25C16.25 4.5924 15.5915 3.00269 14.4194 1.83058C13.2473 0.65848 11.6576 0 10 0ZM10 10C9.00544 10 8.05161 9.60491 7.34835 8.90165C6.64509 8.19839 6.25 7.24456 6.25 6.25C6.25 5.25544 6.64509 4.30161 7.34835 3.59835C8.05161 2.89509 9.00544 2.5 10 2.5C10.9946 2.5 11.9484 2.89509 12.6517 3.59835C13.3549 4.30161 13.75 5.25544 13.75 6.25C13.75 7.24456 13.3549 8.19839 12.6517 8.90165C11.9484 9.60491 10.9946 10 10 10Z" fill="white"/>
</g>
<defs>
<clipPath id="clip0_394_562">
<rect width="20" height="20" fill="white"/>
</clipPath>
</defs>
</svg>
