<svg width="18" height="16" viewBox="0 0 18 16" fill="none" xmlns="http://www.w3.org/2000/svg">
<path d="M9.46933 1.03197C9.3331 1.08121 9.208 1.19611 9.14405 1.33563C9.09957 1.42591 9.09123 1.51619 9.09123 1.87183C9.09123 2.26577 9.09679 2.3068 9.15517 2.41897C9.2497 2.59405 9.40817 2.69527 9.62502 2.71442L9.80017 2.73083L9.81685 3.4257L9.6973 3.45579C9.33588 3.5406 8.75483 3.75125 8.42121 3.91539C6.75591 4.73883 5.61049 6.21337 5.24073 8.01072C4.98217 9.26367 5.15176 10.544 5.72725 11.7039C6.1971 12.6587 6.87823 13.4274 7.75676 14.0019C8.4518 14.4587 9.13571 14.7351 9.93639 14.891C12.8055 15.4491 15.708 13.8159 16.6699 11.1021C16.7922 10.7601 16.9146 10.2786 16.9618 9.93938C17.0174 9.55365 17.0119 8.65908 16.9479 8.28429C16.6338 6.38572 15.455 4.7744 13.7674 3.93727C13.3476 3.72936 12.9695 3.59258 12.433 3.45579L12.3134 3.4257L12.3301 2.73083L12.5052 2.71442C12.7221 2.69527 12.8806 2.59405 12.9834 2.41623C13.0502 2.30133 13.0529 2.2685 13.0529 1.88277C13.0529 1.42317 13.0307 1.32469 12.8945 1.1879C12.7054 0.999141 12.7972 1.00735 11.1068 1.00188C9.85855 0.996405 9.55829 1.00188 9.46933 1.03197ZM11.9242 5.59237C11.9937 5.65803 11.9965 5.75104 11.9409 6.093C11.8158 6.85899 11.6768 7.76724 11.6768 7.8329C11.6768 7.87394 11.7018 7.93959 11.7351 7.98063L11.7908 8.05176H13.7563L13.8425 8.12288C14.0037 8.2542 13.9843 8.29523 13.4366 9.00925C12.597 10.1117 11.1763 11.9611 10.9122 12.3058C10.6314 12.6696 10.5647 12.7188 10.4257 12.6723C10.245 12.6094 10.245 12.6094 10.4618 11.2334C10.6731 9.89288 10.6731 9.87373 10.5202 9.80534C10.473 9.78619 10.1254 9.77524 9.41373 9.77524C8.41287 9.77524 8.37673 9.77251 8.31835 9.72053C8.23772 9.64667 8.21548 9.55092 8.26275 9.46611C8.28221 9.42781 8.63807 9.00378 9.05231 8.52503C9.46933 8.04629 10.1783 7.22284 10.6342 6.69759C11.5683 5.61425 11.6156 5.56501 11.6879 5.53765C11.7629 5.50756 11.8575 5.53218 11.9242 5.59237Z" fill="white"/>
<path d="M1.39578 5.07259C1.20395 5.1656 1.10665 5.26682 1.01212 5.46653C0.9315 5.63067 0.92316 5.87415 0.989883 6.06291C1.05105 6.23799 1.24288 6.44317 1.42359 6.5225L1.57093 6.58816H2.7803C3.95908 6.58816 3.99244 6.58543 4.11755 6.53071C4.41224 6.39666 4.59851 6.11215 4.59851 5.79481C4.59851 5.54313 4.51511 5.3571 4.3344 5.19569C4.10087 4.98778 4.09531 4.98778 2.7525 4.98778H1.56537L1.39578 5.07259Z" fill="white"/>
<path d="M0.54228 8.26241C0.344889 8.32806 0.111357 8.56333 0.0474135 8.7603C-0.0554519 9.07764 0.00849146 9.35121 0.244804 9.58375C0.500577 9.83269 0.481116 9.82996 1.83227 9.82996C3.18064 9.82996 3.16674 9.83269 3.42251 9.58375C3.54206 9.46611 3.58654 9.39772 3.62546 9.27188C3.75057 8.88341 3.57542 8.48947 3.19732 8.29523L3.07221 8.22958L1.87675 8.22411C0.825854 8.21863 0.664606 8.22411 0.54228 8.26241Z" fill="white"/>
<path d="M1.79891 11.4823C1.53479 11.5534 1.29292 11.7914 1.22064 12.0541C1.17893 12.2127 1.20395 12.4754 1.27624 12.6149C1.35408 12.7626 1.51255 12.9213 1.64878 12.9869C1.84061 13.0745 2.08526 13.0909 3.16396 13.08L4.21207 13.0718L4.36498 13.0006C4.68748 12.8502 4.85151 12.6012 4.85151 12.2647C4.85151 12.0924 4.83761 12.0349 4.7681 11.8981C4.68192 11.7285 4.53457 11.5917 4.35108 11.5097C4.24821 11.4632 4.13979 11.4577 3.08611 11.4522C2.19925 11.4468 1.90177 11.455 1.79891 11.4823Z" fill="white"/>
</svg>
