<svg width="18" height="18" viewBox="0 0 18 18" fill="none" xmlns="http://www.w3.org/2000/svg">
<path d="M5 11.4309C5 9.77652 5 8.12158 5 6.46721C5 5.73933 5.42806 5.36931 6.27067 5.36873C8.09383 5.36873 9.91699 5.36873 11.7395 5.36873C12.5658 5.36873 12.9993 5.74222 12.9993 6.45504C12.9993 9.77884 12.9993 13.1026 12.9993 16.4259C12.9993 17.1242 12.5638 17.4994 11.7537 17.5C9.91361 17.5 8.07354 17.5 6.23415 17.5C5.44091 17.5 5.00068 17.1207 5 16.438C5 14.7692 5 13.0997 5 11.4309ZM6.50194 9.84717H11.5041V6.8517H6.50194V9.84717ZM6.96112 11.6509C7.07067 11.6509 7.18766 11.6712 7.28707 11.6446C7.36348 11.6237 7.45613 11.549 7.46965 11.4865C7.4798 11.4384 7.38309 11.3278 7.32561 11.3232C7.08419 11.3041 6.83804 11.3035 6.59594 11.3226C6.53779 11.3272 6.43905 11.439 6.44987 11.4871C6.4634 11.5496 6.5574 11.6237 6.63516 11.6451C6.73457 11.6724 6.85156 11.6509 6.96112 11.6509ZM11.0274 11.6527C11.1369 11.6527 11.2533 11.6724 11.3533 11.6463C11.4325 11.626 11.4926 11.5496 11.5609 11.4981C11.4954 11.4355 11.4372 11.3267 11.3635 11.3186C11.1484 11.2942 10.9253 11.2971 10.7096 11.3186C10.6392 11.3255 10.5216 11.4344 10.5324 11.4772C10.5493 11.5444 10.6453 11.6197 10.7278 11.6469C10.8157 11.6758 10.926 11.6527 11.0274 11.6527ZM6.9273 13.7674C7.04497 13.7674 7.1721 13.7911 7.27828 13.7604C7.35943 13.7373 7.45004 13.6527 7.46762 13.5833C7.47777 13.5433 7.35537 13.4385 7.28369 13.4315C7.06729 13.4113 6.8448 13.4107 6.6284 13.4315C6.55875 13.4385 6.4519 13.5369 6.4519 13.5931C6.4519 13.651 6.55063 13.7344 6.62705 13.7599C6.71496 13.7888 6.82654 13.7674 6.9273 13.7674ZM11.0517 13.424C10.9422 13.424 10.8232 13.4014 10.7258 13.431C10.6433 13.4559 10.5493 13.5352 10.5317 13.6035C10.5209 13.6452 10.6399 13.7535 10.7102 13.7604C10.9266 13.7819 11.1491 13.7819 11.3655 13.7604C11.4365 13.7535 11.5569 13.6452 11.5461 13.6035C11.5285 13.5346 11.4338 13.4588 11.3513 13.4304C11.2641 13.4009 11.1525 13.4246 11.0517 13.424ZM6.96112 15.5405C6.85156 15.5405 6.73457 15.5202 6.63584 15.5468C6.55807 15.5683 6.46407 15.6418 6.4492 15.7043C6.43838 15.7513 6.53846 15.863 6.5973 15.8671C6.83872 15.8856 7.08419 15.885 7.32561 15.8659C7.38309 15.8613 7.48047 15.7507 7.46965 15.7038C7.45545 15.6412 7.36348 15.5671 7.28707 15.5463C7.18766 15.519 7.06999 15.5405 6.96112 15.5405ZM11.0504 15.8798C11.1599 15.8798 11.2783 15.9024 11.375 15.8729C11.4514 15.8497 11.5481 15.7623 11.5488 15.7032C11.5494 15.6499 11.4372 15.5555 11.3655 15.5486C11.1498 15.5277 10.9273 15.5283 10.7116 15.5486C10.6413 15.555 10.5317 15.6488 10.5317 15.7032C10.5317 15.7623 10.6264 15.8526 10.7001 15.8729C10.8069 15.9018 10.9327 15.8804 11.0504 15.881V15.8798ZM8.98039 11.6527C9.09738 11.6527 9.22181 11.6724 9.32933 11.6451C9.40304 11.626 9.49231 11.5455 9.50313 11.483C9.51124 11.4344 9.41522 11.3284 9.35638 11.3232C9.12443 11.3035 8.88707 11.3006 8.65579 11.3209C8.59222 11.3267 8.49484 11.4349 8.49687 11.494C8.4989 11.5484 8.6044 11.6231 8.68149 11.6463C8.77143 11.6729 8.8803 11.6527 8.98039 11.6527ZM9.0115 13.4246C8.90262 13.4246 8.78428 13.402 8.68757 13.4315C8.60642 13.4564 8.5131 13.5369 8.49822 13.6041C8.48876 13.6475 8.60575 13.7535 8.6754 13.7604C8.89045 13.7813 9.11158 13.7813 9.3273 13.7604C9.39628 13.7535 9.5126 13.6464 9.50245 13.6029C9.4869 13.5358 9.3929 13.4588 9.31107 13.4315C9.22384 13.402 9.11226 13.4246 9.0115 13.4246ZM8.98242 15.8786V15.8821C9.09129 15.8821 9.20964 15.9047 9.30566 15.8752C9.38884 15.8497 9.447 15.7651 9.51598 15.7067C9.44632 15.6511 9.38208 15.5555 9.30566 15.5468C9.09941 15.5248 8.88639 15.5266 8.68014 15.5468C8.60913 15.5538 8.4989 15.6435 8.49755 15.6974C8.4962 15.7565 8.58681 15.8474 8.65985 15.8705C8.75587 15.9006 8.87354 15.8786 8.98242 15.8786Z" fill="white"/>
<path d="M7.88554 5.01261H6.2071C6.19763 4.9605 6.18208 4.91301 6.18208 4.86553C6.18073 3.67441 6.17667 2.48328 6.18276 1.29216C6.18614 0.720629 6.76162 0.357559 7.34117 0.55386C7.66712 0.66446 7.87675 0.878133 7.87946 1.17751C7.89163 2.44738 7.88554 3.71726 7.88554 5.01261Z" fill="white"/>
<path d="M11.6827 5.01435H9.94742C9.96636 4.67502 10.3383 4.39533 10.7839 4.38028C11.2262 4.36522 11.6225 4.63622 11.6827 5.01435Z" fill="white"/>
</svg>
