<svg width="20" height="20" viewBox="0 0 20 20" fill="none" xmlns="http://www.w3.org/2000/svg">
<path d="M15.5679 14.3747C15.7264 14.5332 15.8155 14.7482 15.8155 14.9723C15.8155 15.1965 15.7264 15.4115 15.5679 15.57C15.4094 15.7285 15.1944 15.8175 14.9702 15.8175C14.7461 15.8175 14.5311 15.7285 14.3726 15.57L9.90845 11.1044L5.4429 15.5686C5.28439 15.7271 5.06941 15.8161 4.84524 15.8161C4.62108 15.8161 4.4061 15.7271 4.24759 15.5686C4.08908 15.4101 4.00003 15.1951 4.00003 14.9709C4.00003 14.7468 4.08908 14.5318 4.24759 14.3733L8.71313 9.90912L4.24899 5.44357C4.09049 5.28506 4.00144 5.07008 4.00144 4.84592C4.00144 4.62175 4.09049 4.40677 4.24899 4.24826C4.4075 4.08975 4.62249 4.0007 4.84665 4.0007C5.07081 4.0007 5.2858 4.08975 5.44431 4.24826L9.90845 8.71381L14.374 4.24756C14.5325 4.08905 14.7475 4 14.9716 4C15.1958 4 15.4108 4.08905 15.5693 4.24756C15.7278 4.40607 15.8169 4.62105 15.8169 4.84521C15.8169 5.06938 15.7278 5.28436 15.5693 5.44287L11.1038 9.90912L15.5679 14.3747Z" fill="white"/>
</svg>
